<?xml version="1.0" encoding="iso-8859-1"?>
<!-- Generator: Adobe Illustrator 19.0.0, SVG Export Plug-In . SVG Version: 6.00 Build 0)  -->
<svg version="1.1" id="Layer_1" xmlns="http://www.w3.org/2000/svg" xmlns:xlink="http://www.w3.org/1999/xlink" x="0px" y="0px"
	 viewBox="0 0 512 512" style="enable-background:new 0 0 512 512;" xml:space="preserve">
<g>
	<g>
		<path d="M458.28,83.28h-5.539c-3.585-5.627-9.865-9.378-17.017-9.378h-38.871c-7.153,0-13.432,3.751-17.017,9.378H132.165
			c-3.585-5.627-9.865-9.378-17.017-9.378H76.277c-7.153,0-13.432,3.751-17.017,9.378h-5.54C24.099,83.28,0,107.379,0,137v90
			c0,0.163,0.014,0.322,0.024,0.482c-0.007,0-0.014,0-0.021,0v203.116c0,4.143,3.358,7.5,7.5,7.5h496.994c4.142,0,7.5-3.357,7.5-7.5
			V315.003c0-4.143-3.358-7.5-7.5-7.5c-4.142,0-7.5,3.357-7.5,7.5v108.095h-41.092V234.5h41.092v50.848c0,4.143,3.358,7.5,7.5,7.5
			c4.142,0,7.5-3.357,7.5-7.5v-58.29c0-0.02,0.003-0.039,0.003-0.058v-90C512,107.379,487.901,83.28,458.28,83.28z M53.72,98.28
			h2.375v20.141H19.76C26.347,106.428,39.098,98.28,53.72,98.28z M56.095,423.098H15.003V234.5h41.092V423.098z M56.095,219.5H15
			v-39.479h41.095V219.5z M56.096,165.021L56.096,165.021H15V137c0-1.207,0.063-2.4,0.172-3.579h40.924V165.021z M135.33,133.421
			h169.003c4.142,0,7.5-3.357,7.5-7.5c0-4.143-3.358-7.5-7.5-7.5H135.33V98.28h241.34v20.141H339c-4.142,0-7.5,3.357-7.5,7.5
			c0,4.143,3.358,7.5,7.5,7.5h37.67v31.601H135.33V133.421z M135.33,180.021h241.34V219.5H135.33V180.021z M290.02,234.5v33.783
			c0,18.759-15.262,34.021-34.021,34.021c-18.759,0-34.021-15.262-34.021-34.021V234.5h0.001H290.02z M71.095,94.084
			c0-2.857,2.325-5.182,5.182-5.182h38.871c2.857,0,5.182,2.324,5.182,5.182v125.179H71.095V94.084z M120.329,423.098H71.095
			v-16.165h49.234V423.098z M376.671,423.098L376.671,423.098H135.33v-86.1c0-4.143-3.358-7.5-7.5-7.5c-4.142,0-7.5,3.357-7.5,7.5
			v54.935H71.095V234.5h49.234v71.833c0,4.143,3.358,7.5,7.5,7.5c4.142,0,7.5-3.357,7.5-7.5V234.5h71.65v33.783
			c0,27.03,21.991,49.021,49.021,49.021c27.03,0,49.021-21.99,49.021-49.021V234.5h71.65V423.098z M440.904,423.098H391.67v-16.165
			h49.234V423.098z M391.67,391.933V234.5h49.234v157.433H391.67z M440.905,219.263H391.67V94.084c0-2.857,2.325-5.182,5.182-5.182
			h38.871c2.857,0,5.182,2.324,5.182,5.182V219.263z M455.904,118.421V98.28h2.375c14.623,0,27.374,8.148,33.961,20.141H455.904z
			 M497,219.5h-41.095v-39.479H497V219.5z M497,165.021h-41.095V133.42h40.924c0.108,1.18,0.171,2.373,0.171,3.58V165.021z"/>
	</g>
</g>
<g>
	<g>
		<path d="M256,243.498c-4.142,0-7.5,3.357-7.5,7.5v22.259c0,4.142,3.358,7.5,7.5,7.5c4.142,0,7.5-3.357,7.5-7.5v-22.259
			C263.5,246.855,260.142,243.498,256,243.498z"/>
	</g>
</g>
<g>
</g>
<g>
</g>
<g>
</g>
<g>
</g>
<g>
</g>
<g>
</g>
<g>
</g>
<g>
</g>
<g>
</g>
<g>
</g>
<g>
</g>
<g>
</g>
<g>
</g>
<g>
</g>
<g>
</g>
</svg>
